<svg width="24" height="24" viewBox="0 0 24 24" fill="none" xmlns="http://www.w3.org/2000/svg">
<path d="M11.7666 2L11.9073 6.41922L13.174 2H11.7666ZM7.91965 2.00948L7.84937 11.4103L1 9.68465L5.45677 16.4327L1.89137 16.2266L6.48747 20.7014L4.70152 17.6799L7.72245 17.9983L5.64402 13.6198L10.0667 16.8041L9.55921 9.42713L9.55929 9.42725L12.5801 16.2204L15.6252 12.638L15.3594 18.7944L17.7762 17.2023L16.9573 20.3679L20 14.6812L16.9506 14.7585L19.7888 7.59848L14.5111 10.509L14.0185 4.94566L11.3914 10.5347L7.91978 2.00952H7.91965V2.00948ZM2.04347 3.14691L1.79654 4.41517L6.41264 10.0729H6.41272L3.29596 3.42844L2.04343 3.14687L2.04347 3.14691ZM19.0037 4.13364L17.7512 4.41521L15.9945 8.69134L19.2506 5.40211L19.0037 4.13364H19.0037ZM11.4301 17.465C9.81646 17.465 8.50983 18.7608 8.50983 20.3608C8.50983 20.5888 8.53538 20.7871 8.58562 21C8.87681 19.7038 10.0354 18.7436 11.4301 18.7436C12.8286 18.7436 13.9875 19.6982 14.2745 21C14.3234 20.7898 14.3503 20.5856 14.3503 20.3608C14.3503 18.7608 13.0436 17.465 11.43 17.465L11.4301 17.465Z" fill="#D9D9D9"/>
</svg>
