<svg width="100" height="100" viewBox="0 0 100 100" fill="none" xmlns="http://www.w3.org/2000/svg">
<path fill-rule="evenodd" clip-rule="evenodd" d="M4.03856 39.9887C4.05603 39.9836 4.06369 39.9631 4.05392 39.9478C1.4871 35.9174 0 31.1324 0 26C0 11.6406 11.6406 0 26 0C33.3841 0 40.0492 3.07817 44.7822 8.02133C47.2384 10.5866 52.7616 10.5866 55.2178 8.02133C59.9508 3.07817 66.6159 0 74 0C88.3594 0 100 11.6406 100 26C100 32.0328 97.9453 37.5858 94.4975 41.9972C94.497 41.998 94.4973 41.9991 94.4982 41.9994C94.4991 41.9997 94.4994 42.0008 94.4988 42.0015L53.155 94.9587C51.5529 97.0109 48.4484 97.0099 46.8476 94.9567L6.44053 43.1302C5.78149 42.3784 5.16512 41.5881 4.59518 40.7634L4.02471 40.0317C4.01285 40.0165 4.02006 39.9941 4.03856 39.9887Z" fill="#FF6464"/>
</svg>
