<svg width="24" height="24" viewBox="0 0 24 24" fill="none" xmlns="http://www.w3.org/2000/svg">
<path fill-rule="evenodd" clip-rule="evenodd" d="M19 6C19 4.93913 18.5786 3.92172 17.8284 3.17157C17.0783 2.42143 16.0609 2 15 2H8C6.93913 2 5.92172 2.42143 5.17157 3.17157C4.42143 3.92172 4 4.93913 4 6V12.99C4.00003 13.8437 4.27317 14.6749 4.77948 15.3623C5.28579 16.0496 5.99872 16.5569 6.814 16.81C8.37267 17.2933 9.93467 17.5353 11.5 17.536C13.0653 17.536 14.6273 17.2937 16.186 16.809C17.0013 16.5559 17.7142 16.0486 18.2205 15.3613C18.7268 14.6739 19 13.8427 19 12.989V6ZM6 12.99V6C6 5.46957 6.21071 4.96086 6.58579 4.58579C6.96086 4.21071 7.46957 4 8 4H15C15.5304 4 16.0391 4.21071 16.4142 4.58579C16.7893 4.96086 17 5.46957 17 6V12.99C17 13.4168 16.8634 13.8325 16.6103 14.1761C16.3571 14.5198 16.0006 14.7734 15.593 14.9C14.2688 15.3182 12.8887 15.5327 11.5 15.536C10.1393 15.536 8.775 15.3237 7.407 14.899C6.99952 14.7725 6.64318 14.519 6.39004 14.1755C6.1369 13.8321 6.00023 13.4167 6 12.99Z" fill="#D9D9D9"/>
<path d="M9.5 13C9.5 13.3978 9.34197 13.7794 9.06066 14.0607C8.77936 14.342 8.39783 14.5 8 14.5C7.60218 14.5 7.22064 14.342 6.93934 14.0607C6.65804 13.7794 6.5 13.3978 6.5 13C6.5 12.6022 6.65804 12.2206 6.93934 11.9393C7.22064 11.658 7.60218 11.5 8 11.5C8.39783 11.5 8.77936 11.658 9.06066 11.9393C9.34197 12.2206 9.5 12.6022 9.5 13ZM16.5 13C16.5 13.3978 16.342 13.7794 16.0607 14.0607C15.7794 14.342 15.3978 14.5 15 14.5C14.6022 14.5 14.2206 14.342 13.9393 14.0607C13.658 13.7794 13.5 13.3978 13.5 13C13.5 12.6022 13.658 12.2206 13.9393 11.9393C14.2206 11.658 14.6022 11.5 15 11.5C15.3978 11.5 15.7794 11.658 16.0607 11.9393C16.342 12.2206 16.5 12.6022 16.5 13ZM6.081 16.147C6.13106 16.0243 6.20498 15.9128 6.29849 15.819C6.392 15.7252 6.50322 15.6508 6.6257 15.6003C6.74818 15.5498 6.87947 15.5242 7.01195 15.5248C7.14443 15.5255 7.27545 15.5525 7.39741 15.6042C7.51937 15.656 7.62984 15.7314 7.72239 15.8262C7.81494 15.921 7.88773 16.0333 7.93654 16.1564C7.98535 16.2796 8.0092 16.4112 8.0067 16.5437C8.0042 16.6761 7.97541 16.8068 7.922 16.928L6.447 20.403C6.39874 20.5281 6.32579 20.6423 6.23251 20.7387C6.13922 20.835 6.0275 20.9117 5.904 20.964C5.7805 21.0163 5.64773 21.0432 5.5136 21.0432C5.37948 21.0431 5.24673 21.0161 5.12327 20.9637C4.9998 20.9113 4.88814 20.8346 4.79493 20.7381C4.70172 20.6417 4.62886 20.5275 4.58069 20.4023C4.53253 20.2771 4.51003 20.1435 4.51455 20.0095C4.51907 19.8754 4.55051 19.7436 4.607 19.622L6.081 16.147ZM16.968 15.653C16.9224 15.5298 16.853 15.4168 16.7638 15.3205C16.6746 15.2241 16.5672 15.1462 16.4479 15.0914C16.3286 15.0365 16.1996 15.0056 16.0684 15.0006C15.9371 14.9956 15.8062 15.0164 15.683 15.062C15.5598 15.1076 15.4468 15.177 15.3505 15.2662C15.2541 15.3554 15.1762 15.4628 15.1214 15.5821C15.0665 15.7014 15.0356 15.8304 15.0306 15.9616C15.0256 16.0929 15.0464 16.2238 15.092 16.347L16.562 20.317C16.6076 20.4402 16.677 20.5532 16.7662 20.6495C16.8554 20.7459 16.9628 20.8238 17.0821 20.8786C17.2014 20.9335 17.3304 20.9644 17.4616 20.9694C17.5929 20.9744 17.7238 20.9536 17.847 20.908C17.9702 20.8624 18.0832 20.793 18.1795 20.7038C18.2759 20.6146 18.3538 20.5072 18.4086 20.3879C18.4635 20.2686 18.4944 20.1396 18.4994 20.0084C18.5044 19.8771 18.4836 19.7462 18.438 19.623L16.968 15.653Z" fill="#D9D9D9"/>
<path fill-rule="evenodd" clip-rule="evenodd" d="M16.5 7C16.5 6.33696 16.2366 5.70107 15.7678 5.23223C15.2989 4.76339 14.663 4.5 14 4.5H9C8.33696 4.5 7.70107 4.76339 7.23223 5.23223C6.76339 5.70107 6.5 6.33696 6.5 7V8.535C6.50018 9.12439 6.7086 9.69476 7.08845 10.1454C7.4683 10.5961 7.99515 10.898 8.576 10.998C9.55 11.166 10.5247 11.25 11.5 11.25C12.4753 11.25 13.45 11.166 14.424 10.998C15.0048 10.898 15.5317 10.5961 15.9116 10.1454C16.2914 9.69476 16.4998 9.12439 16.5 8.535V7ZM8.5 8.535V7C8.5 6.86739 8.55268 6.74021 8.64645 6.64645C8.74021 6.55268 8.86739 6.5 9 6.5H14C14.1326 6.5 14.2598 6.55268 14.3536 6.64645C14.4473 6.74021 14.5 6.86739 14.5 7V8.535C14.4998 8.65275 14.4581 8.76665 14.3822 8.85666C14.3063 8.94666 14.201 9.00698 14.085 9.027C13.2217 9.17567 12.36 9.25 11.5 9.25C10.64 9.25 9.77833 9.17567 8.915 9.027C8.79897 9.00698 8.69372 8.94666 8.61781 8.85666C8.54189 8.76665 8.50017 8.65275 8.5 8.535Z" fill="#D9D9D9"/>
<path d="M6.25 19.25V17.75H16.751V19.25H6.25Z" fill="#D9D9D9"/>
</svg>
