<svg width="300" height="300" viewBox="0 0 300 300" fill="none" xmlns="http://www.w3.org/2000/svg">
<path fill-rule="evenodd" clip-rule="evenodd" d="M149.634 55C215.214 55 271.343 96.6335 294.412 155.612C296.39 160.669 293.603 166.243 288.477 168.035L180.876 205.658C180.731 205.708 180.634 205.846 180.634 206C180.634 223.121 166.755 237 149.634 237C132.513 237 118.634 223.121 118.634 206C118.634 205.489 118.32 205.026 117.838 204.855L11.2157 166.801C6.09393 164.973 3.34316 159.369 5.36744 154.322C28.7467 96.0273 84.5336 55 149.634 55Z" fill="black"/>
<path fill-rule="evenodd" clip-rule="evenodd" d="M279.4 161.802C282.511 160.715 284.174 157.315 282.981 154.244C262.242 100.849 210.358 63 149.634 63C89.36 63 37.7955 100.291 16.7537 153.06C15.531 156.126 17.1715 159.545 20.2805 160.655L118.133 195.578C121.317 196.715 124.763 194.944 126.512 192.05C131.242 184.229 139.827 179 149.634 179C159.596 179 168.297 184.394 172.976 192.421C174.694 195.368 178.156 197.202 181.376 196.076L279.4 161.802Z" fill="#D9D9D9"/>
<circle cx="149.634" cy="206" r="18" fill="#0F0F0F"/>
<path d="M29.0983 152V129.664H44.2983V133.984H33.9623V138.56H42.8263V142.848H33.9623V147.68H44.2983V152H29.0983Z" fill="black"/>
<rect x="145.634" y="80" width="8" height="31" fill="#030303"/>
<rect x="27.6343" y="163.417" width="8" height="31" transform="rotate(-67.9964 27.6343 163.417)" fill="#030303"/>
<rect x="267.796" y="158" width="8" height="31" transform="rotate(70.1682 267.796 158)" fill="#030303"/>
<path d="M257.134 171.5C246.634 142.5 210.386 88 149.634 88C97.6343 88 54.6343 136.5 40.6343 171.5" stroke="black" stroke-opacity="0.5" stroke-width="10" stroke-dasharray="4 24"/>
<path d="M40.3576 164.785L169.656 206.272C171.212 207.363 174.027 210.442 172.841 214.025C171.656 217.607 168.287 218.454 166.751 218.43L38.2952 171.695C37.0589 170.988 34.9203 169.038 36.2562 166.89C37.5921 164.741 39.5471 164.591 40.3576 164.785Z" fill="#CA2337"/>
</svg>
