<svg width="24" height="24" viewBox="0 0 24 24" fill="none" xmlns="http://www.w3.org/2000/svg">
<g clip-path="url(#clip0_205_74)">
<path fill-rule="evenodd" clip-rule="evenodd" d="M3.16306 14.0872C3.11981 13.9258 3.14245 13.7538 3.226 13.6091C3.30954 13.4644 3.44715 13.3588 3.60855 13.3155L8.47693 12.0111C8.63833 11.9678 8.8103 11.9905 8.955 12.074C9.09971 12.1576 9.2053 12.2952 9.24854 12.4566C9.29179 12.618 9.26915 12.7899 9.1856 12.9346C9.10206 13.0793 8.96445 13.1849 8.80305 13.2282L8.6002 13.2825L9.08938 15.1082C9.11822 15.2158 9.18861 15.3075 9.28508 15.3632C9.38155 15.4189 9.49619 15.434 9.60379 15.4052L11.4294 14.916C12.6668 14.5844 13.9852 14.758 15.0946 15.3985C16.204 16.039 17.0135 17.094 17.3451 18.3314L17.8886 20.3599L18.0915 20.3055C18.2529 20.2623 18.4248 20.2849 18.5695 20.3685C18.7143 20.452 18.8198 20.5896 18.8631 20.751C18.9063 20.9124 18.8837 21.0844 18.8001 21.2291C18.7166 21.3738 18.579 21.4794 18.4176 21.5226L13.5492 22.8271C13.3878 22.8703 13.2159 22.8477 13.0711 22.7642C12.9264 22.6806 12.8209 22.543 12.7776 22.3816C12.7344 22.2202 12.757 22.0482 12.8405 21.9035C12.9241 21.7588 13.0617 21.6533 13.2231 21.61L13.4259 21.5557L12.9368 19.73C12.9079 19.6224 12.8375 19.5307 12.7411 19.475C12.6446 19.4193 12.53 19.4042 12.4224 19.433L10.5967 19.9222C9.35934 20.2537 8.04093 20.0802 6.93153 19.4397C5.82213 18.7991 5.01261 17.7442 4.68105 16.5068L4.13752 14.4783L3.93467 14.5326C3.77327 14.5759 3.60131 14.5533 3.4566 14.4697C3.3119 14.3862 3.20631 14.2486 3.16306 14.0872ZM14.643 21.2295L16.6715 20.686L16.128 18.6575C15.8829 17.7429 15.2846 16.9631 14.4646 16.4897C13.6446 16.0163 12.6701 15.888 11.7556 16.1331L11.3499 16.2418L11.8934 18.2703L12.0962 18.2159C12.5266 18.1006 12.9852 18.161 13.3711 18.3838C13.757 18.6065 14.0385 18.9735 14.1539 19.4039L14.643 21.2295ZM5.35461 14.1522L7.38311 13.6086L7.87229 15.4343C7.98761 15.8647 8.26918 16.2316 8.65506 16.4544C9.04094 16.6772 9.49952 16.7376 9.92991 16.6223L10.1328 16.5679L10.6763 18.5964L10.2706 18.7051C9.35601 18.9502 8.38154 18.8219 7.56154 18.3484C6.74155 17.875 6.14321 17.0952 5.89815 16.1807L5.35461 14.1522Z" fill="url(#paint0_linear_205_74)"/>
<path d="M23 13.6C23 13.904 22.8367 14.168 22.5878 14.304L16.4433 17.856C16.3189 17.952 16.1633 18 16 18C15.8367 18 15.6811 17.952 15.5567 17.856L9.41223 14.304C9.28748 14.2367 9.18308 14.1354 9.11039 14.0113C9.03771 13.8872 8.99953 13.7449 9 13.6V6.4C9 6.096 9.16334 5.832 9.41223 5.696L15.5567 2.144C15.6811 2.048 15.8367 2 16 2C16.1633 2 16.3189 2.048 16.4433 2.144L22.5878 5.696C22.8367 5.832 23 6.096 23 6.4V13.6ZM16 6C14.9686 6 13.9795 6.42143 13.2501 7.17157C12.5208 7.92172 12.1111 8.93913 12.1111 10C12.1111 11.0609 12.5208 12.0783 13.2501 12.8284C13.9795 13.5786 14.9686 14 16 14C17.0314 14 18.0206 13.5786 18.7499 12.8284C19.4792 12.0783 19.8889 11.0609 19.8889 10C19.8889 8.93913 19.4792 7.92172 18.7499 7.17157C18.0206 6.42143 17.0314 6 16 6Z" fill="url(#paint1_linear_205_74)"/>
<path fill-rule="evenodd" clip-rule="evenodd" d="M14.653 7.35L16.709 7.686C16.7901 7.69986 16.8637 7.74184 16.9169 7.80456C16.9701 7.86729 16.9995 7.94675 17 8.029V9.942C16.9994 10.0236 16.9703 10.1025 16.9177 10.165C16.8651 10.2274 16.7924 10.2695 16.712 10.284L14.654 10.646C14.535 11.0579 14.3706 11.4553 14.164 11.831L15.381 13.521C15.4291 13.5882 15.4518 13.6702 15.4452 13.7526C15.4387 13.8349 15.4031 13.9123 15.345 13.971L13.992 15.323C13.9341 15.3805 13.858 15.4159 13.7767 15.4232C13.6955 15.4305 13.6142 15.4092 13.547 15.363L11.84 14.165C11.4627 14.375 11.065 14.5417 10.647 14.665L10.284 16.713C10.2693 16.7933 10.227 16.866 10.1643 16.9184C10.1017 16.9708 10.0227 16.9997 9.941 17H8.028C7.94589 16.9996 7.86655 16.9703 7.80384 16.9173C7.74114 16.8643 7.69908 16.7909 7.685 16.71L7.345 14.671C6.92931 14.5497 6.52797 14.3837 6.148 14.176L4.454 15.362C4.38693 15.4088 4.3056 15.4306 4.22413 15.4236C4.14266 15.4167 4.0662 15.3814 4.008 15.324L2.655 13.97C2.59736 13.9114 2.56217 13.8345 2.55559 13.7525C2.54901 13.6706 2.57146 13.589 2.619 13.522L3.816 11.848C3.6061 11.466 3.43844 11.0623 3.316 10.644L1.287 10.284C1.20682 10.2693 1.13428 10.2271 1.08189 10.1647C1.02949 10.1023 1.00053 10.0235 1 9.942V8.029C1 7.859 1.123 7.714 1.29 7.686L3.32 7.348C3.442 6.928 3.60867 6.527 3.82 6.145L2.636 4.453C2.58963 4.3859 2.56816 4.30472 2.57528 4.22347C2.5824 4.14222 2.61767 4.06601 2.675 4.008L4.027 2.656C4.147 2.536 4.337 2.52 4.475 2.619L6.155 3.819C6.53482 3.61273 6.93581 3.44811 7.351 3.328L7.684 1.292C7.69768 1.21057 7.73971 1.1366 7.80266 1.08317C7.86561 1.02973 7.94543 1.00027 8.028 1H9.941C10.111 1 10.255 1.122 10.284 1.288L10.643 3.335C11.059 3.45633 11.4567 3.622 11.836 3.832L13.521 2.621C13.5882 2.57292 13.6702 2.55016 13.7526 2.55675C13.8349 2.56334 13.9123 2.59885 13.971 2.657L15.323 4.009C15.443 4.129 15.459 4.317 15.362 4.455L14.162 6.165C14.3687 6.54167 14.533 6.93667 14.653 7.35ZM6.565 9C6.565 9.31977 6.62798 9.63641 6.75035 9.93183C6.87272 10.2273 7.05208 10.4957 7.2782 10.7218C7.50431 10.9479 7.77274 11.1273 8.06817 11.2496C8.36359 11.372 8.68023 11.435 9 11.435C9.31977 11.435 9.63641 11.372 9.93183 11.2496C10.2273 11.1273 10.4957 10.9479 10.7218 10.7218C10.9479 10.4957 11.1273 10.2273 11.2496 9.93183C11.372 9.63641 11.435 9.31977 11.435 9C11.435 8.3542 11.1785 7.73485 10.7218 7.2782C10.2652 6.82154 9.6458 6.565 9 6.565C8.3542 6.565 7.73485 6.82154 7.2782 7.2782C6.82154 7.73485 6.565 8.3542 6.565 9Z" fill="url(#paint2_linear_205_74)"/>
</g>
<defs>
<linearGradient id="paint0_linear_205_74" x1="9.49118" y1="11.7393" x2="12.535" y2="23.0989" gradientUnits="userSpaceOnUse">
<stop stop-color="#767676"/>
<stop offset="1" stop-color="#DCDCDC"/>
</linearGradient>
<linearGradient id="paint1_linear_205_74" x1="16" y1="2" x2="16" y2="18" gradientUnits="userSpaceOnUse">
<stop stop-color="#767676"/>
<stop offset="1" stop-color="#DCDCDC"/>
</linearGradient>
<linearGradient id="paint2_linear_205_74" x1="9" y1="1" x2="9" y2="17" gradientUnits="userSpaceOnUse">
<stop stop-color="#767676"/>
<stop offset="1" stop-color="#DCDCDC"/>
</linearGradient>
<clipPath id="clip0_205_74">
<rect width="24" height="24" fill="white"/>
</clipPath>
</defs>
</svg>
